<svg xmlns="http://www.w3.org/2000/svg" viewBox="0 0 1000 1000"><defs><style>.cls-1{fill:#fff;}</style></defs><title>Asset 1</title><g id="Layer_2" data-name="Layer 2"><g id="Layer_2-2" data-name="Layer 2"><path class="cls-1" d="M500,0C638.07,0,750,111.93,750,250S638.07,500,500,500c138.07,0,250,111.93,250,250s-111.93,250-250,250c276.14,0,500-223.86,500-500S776.14,0,500,0Z"/><path d="M250,750c0-138.07,111.93-250,250-250-138.07,0-250-111.93-250-250S361.93,0,500,0C223.86,0,0,223.86,0,500s223.86,500,500,500C361.93,1000,250,888.07,250,750Z"/><path d="M250,250c0,138.07,111.93,250,250,250S750,388.07,750,250,638.07,0,500,0,250,111.93,250,250ZM500,125A125,125,0,1,1,375,250,125,125,0,0,1,500,125Z"/><path class="cls-1" d="M750,750c0-138.07-111.93-250-250-250S250,611.93,250,750s111.93,250,250,250S750,888.07,750,750ZM500,875A125,125,0,1,1,625,750,125,125,0,0,1,500,875Z"/><circle cx="500" cy="750" r="125"/><circle class="cls-1" cx="500" cy="250" r="125"/></g></g></svg>